<svg width="998" height="716" viewBox="0 0 998 716" fill="none" xmlns="http://www.w3.org/2000/svg">
<path d="M502.267 0.837494C541.999 0.83754 575.142 13.7857 601.654 39.693C628.207 65.039 641.429 104.216 641.429 157.1V383C641.429 423.249 635.422 456.04 623.374 481.341L623.372 481.346C611.326 506.04 594.447 524.135 572.729 535.597L572.724 535.6C551.633 546.447 527.543 551.863 500.467 551.863C473.385 551.863 448.993 546.145 427.304 534.698L427.298 534.695V534.694C406.183 523.232 389.309 505.141 376.666 480.457L376.662 480.449L376.658 480.442C364.61 455.142 358.604 422.651 358.604 383V157.1C358.604 103.615 372.125 64.1351 399.282 38.7887L399.287 38.7848C427.001 13.4811 461.34 0.837494 502.267 0.837494ZM254.281 8.03769V386.038H307.381V434.863H254.281V541.062H183.856V434.863H1.15625V379.265L1.2168 379.145L189.317 8.34531L189.474 8.03769H254.281ZM944.223 8.03769V386.038H997.322V434.863H944.223V541.062H873.798V434.863H691.098V379.265L691.158 379.145L879.259 8.34531L879.415 8.03769H944.223ZM500.467 46.0621C480.24 46.0621 463.293 54.084 449.595 70.1646C435.913 86.2262 429.029 109.476 429.029 140V414.5C429.029 445.023 435.913 468.274 449.595 484.336C463.293 500.416 480.24 508.437 500.467 508.437C521.298 508.437 538.238 500.412 551.33 484.344L551.338 484.336C565.02 468.274 571.904 445.023 571.904 414.5V140C571.904 109.481 564.723 86.2348 550.446 70.1734L550.438 70.1646C536.736 54.0795 520.088 46.0622 500.467 46.0621ZM751.07 386.038H873.798L873.797 140.582L751.07 386.038ZM61.1289 386.038H183.856V140.582L61.1289 386.038Z" fill="#262696" stroke="#262696" stroke-width="1.125"/>
<mask id="path-2-outside-1_50_594" maskUnits="userSpaceOnUse" x="242.943" y="564.275" width="516" height="152" fill="black">
<rect fill="white" x="242.943" y="564.275" width="516" height="152"/>
<path d="M276.893 714.2C269.693 714.2 263.693 713.3 258.893 711.5C254.243 709.7 250.718 706.325 248.318 701.375C246.068 696.425 244.943 689.45 244.943 680.45V629.825C244.943 618.725 247.418 610.925 252.368 606.425C257.468 601.775 265.643 599.45 276.893 599.45C287.993 599.45 296.018 601.7 300.968 606.2C306.068 610.7 308.618 618.575 308.618 629.825V680.45C308.618 689.3 307.493 696.2 305.243 701.15C302.993 706.1 299.468 709.55 294.668 711.5C290.018 713.3 284.093 714.2 276.893 714.2ZM276.893 703.625C282.143 703.625 285.893 702.275 288.143 699.575C290.393 696.875 291.518 692 291.518 684.95V628.7C291.518 621.95 290.393 617.15 288.143 614.3C286.043 611.45 282.293 610.025 276.893 610.025C271.643 610.025 267.818 611.45 265.418 614.3C263.168 617 262.043 621.8 262.043 628.7V684.95C262.043 692 263.168 696.875 265.418 699.575C267.818 702.275 271.643 703.625 276.893 703.625ZM326.033 712.625V601.25H343.133V700.25H368.783V601.25H385.883V700.25H411.533V601.25H428.633V712.625H326.033ZM446.663 712.625V601.475H461.963V681.575L495.938 601.475H511.238V712.625H496.163V628.7C490.313 642.8 484.463 656.825 478.613 670.775C472.913 684.575 466.988 698.525 460.838 712.625H446.663ZM560.78 714.2C553.58 714.2 547.58 713.225 542.78 711.275C538.13 709.325 534.605 706.175 532.205 701.825C529.955 697.325 528.83 691.55 528.83 684.5V603.95C528.83 596.45 529.655 590.525 531.305 586.175C533.105 581.675 535.88 578.45 539.63 576.5C543.53 574.4 548.48 573.35 554.48 573.35C557.48 573.35 560.705 573.2 564.155 572.9C567.605 572.45 570.83 571.925 573.83 571.325C576.98 570.725 579.605 570.05 581.705 569.3C583.955 568.55 585.38 567.875 585.98 567.275V575.15C585.98 576.95 584.555 578.825 581.705 580.775C578.855 582.725 574.355 583.7 568.205 583.7H564.83C560.33 583.7 556.655 584.3 553.805 585.5C551.105 586.55 549.08 588.425 547.73 591.125C546.53 593.825 545.855 597.5 545.705 602.15V617.225C547.055 614.525 549.455 612.125 552.905 610.025C556.505 607.925 561.305 606.875 567.305 606.875C573.305 606.875 578.255 607.85 582.155 609.8C586.055 611.75 588.98 614.75 590.93 618.8C593.03 622.85 594.08 628.25 594.08 635V680.45C594.08 687.05 593.48 692.525 592.28 696.875C591.08 701.075 589.205 704.525 586.655 707.225C584.105 709.775 580.655 711.575 576.305 712.625C572.105 713.675 566.93 714.2 560.78 714.2ZM561.455 703.85C566.105 703.85 569.48 702.95 571.58 701.15C573.83 699.35 575.255 696.95 575.855 693.95C576.605 690.95 576.98 687.65 576.98 684.05V636.8C576.98 633.35 576.68 630.2 576.08 627.35C575.48 624.5 574.055 622.25 571.805 620.6C569.705 618.95 566.33 618.125 561.68 618.125C557.78 618.125 554.705 618.65 552.455 619.7C550.355 620.75 548.78 622.175 547.73 623.975C546.83 625.625 546.23 627.35 545.93 629.15C545.78 630.95 545.705 632.75 545.705 634.55V684.05C545.705 687.65 546.005 690.95 546.605 693.95C547.355 696.95 548.855 699.35 551.105 701.15C553.355 702.95 556.805 703.85 561.455 703.85ZM611.458 712.625V601.25H628.558V647.375C632.758 638.675 637.708 631.025 643.408 624.425C649.108 617.825 655.033 612.725 661.183 609.125C667.483 605.525 673.258 603.8 678.508 603.95V615.65C674.608 616.55 671.083 618.125 667.933 620.375C664.783 622.625 661.933 625.175 659.383 628.025C657.583 629.975 655.858 632.075 654.208 634.325C652.708 636.425 651.283 638.675 649.933 641.075L677.833 712.625H658.258L635.308 659.75C633.958 661.85 632.608 664.175 631.258 666.725C630.058 669.275 629.158 671.15 628.558 672.35V712.625H611.458ZM715.466 714.2C711.866 714.2 708.341 713.675 704.891 712.625C701.441 711.725 698.516 709.55 696.116 706.1C693.716 702.65 692.516 697.25 692.516 689.9V677.975C692.516 670.625 694.691 664.7 699.041 660.2C703.541 655.7 709.916 651.65 718.166 648.05C723.116 645.8 727.166 643.775 730.316 641.975C733.466 640.025 735.791 637.925 737.291 635.675C738.791 633.275 739.541 630.125 739.541 626.225V621.05C739.541 617.75 738.866 615.275 737.516 613.625C736.316 611.825 734.591 610.55 732.341 609.8C730.241 609.05 727.916 608.675 725.366 608.675C719.366 608.675 715.391 610.4 713.441 613.85C711.641 617.15 710.741 622.25 710.741 629.15V638.6H695.216V627.575C695.216 622.025 695.966 617.15 697.466 612.95C698.966 608.6 701.891 605.225 706.241 602.825C710.591 600.275 716.966 599 725.366 599C734.216 599 740.891 599.975 745.391 601.925C749.891 603.725 752.891 606.425 754.391 610.025C756.041 613.625 756.866 618.125 756.866 623.525V712.625H739.766V699.125C738.116 704.075 734.966 707.825 730.316 710.375C725.816 712.925 720.866 714.2 715.466 714.2ZM722.216 702.725C728.366 702.725 732.716 700.625 735.266 696.425C737.966 692.075 739.316 686.225 739.316 678.875V645.125C737.966 647.375 735.716 649.4 732.566 651.2C729.566 652.85 726.491 654.575 723.341 656.375C718.841 659.075 715.316 661.85 712.766 664.7C710.366 667.55 709.166 671.525 709.166 676.625V686.3C709.166 691.1 709.841 694.7 711.191 697.1C712.541 699.5 714.191 701.075 716.141 701.825C718.241 702.425 720.266 702.725 722.216 702.725Z"/>
</mask>
<path d="M276.893 714.2C269.693 714.2 263.693 713.3 258.893 711.5C254.243 709.7 250.718 706.325 248.318 701.375C246.068 696.425 244.943 689.45 244.943 680.45V629.825C244.943 618.725 247.418 610.925 252.368 606.425C257.468 601.775 265.643 599.45 276.893 599.45C287.993 599.45 296.018 601.7 300.968 606.2C306.068 610.7 308.618 618.575 308.618 629.825V680.45C308.618 689.3 307.493 696.2 305.243 701.15C302.993 706.1 299.468 709.55 294.668 711.5C290.018 713.3 284.093 714.2 276.893 714.2ZM276.893 703.625C282.143 703.625 285.893 702.275 288.143 699.575C290.393 696.875 291.518 692 291.518 684.95V628.7C291.518 621.95 290.393 617.15 288.143 614.3C286.043 611.45 282.293 610.025 276.893 610.025C271.643 610.025 267.818 611.45 265.418 614.3C263.168 617 262.043 621.8 262.043 628.7V684.95C262.043 692 263.168 696.875 265.418 699.575C267.818 702.275 271.643 703.625 276.893 703.625ZM326.033 712.625V601.25H343.133V700.25H368.783V601.25H385.883V700.25H411.533V601.25H428.633V712.625H326.033ZM446.663 712.625V601.475H461.963V681.575L495.938 601.475H511.238V712.625H496.163V628.7C490.313 642.8 484.463 656.825 478.613 670.775C472.913 684.575 466.988 698.525 460.838 712.625H446.663ZM560.78 714.2C553.58 714.2 547.58 713.225 542.78 711.275C538.13 709.325 534.605 706.175 532.205 701.825C529.955 697.325 528.83 691.55 528.83 684.5V603.95C528.83 596.45 529.655 590.525 531.305 586.175C533.105 581.675 535.88 578.45 539.63 576.5C543.53 574.4 548.48 573.35 554.48 573.35C557.48 573.35 560.705 573.2 564.155 572.9C567.605 572.45 570.83 571.925 573.83 571.325C576.98 570.725 579.605 570.05 581.705 569.3C583.955 568.55 585.38 567.875 585.98 567.275V575.15C585.98 576.95 584.555 578.825 581.705 580.775C578.855 582.725 574.355 583.7 568.205 583.7H564.83C560.33 583.7 556.655 584.3 553.805 585.5C551.105 586.55 549.08 588.425 547.73 591.125C546.53 593.825 545.855 597.5 545.705 602.15V617.225C547.055 614.525 549.455 612.125 552.905 610.025C556.505 607.925 561.305 606.875 567.305 606.875C573.305 606.875 578.255 607.85 582.155 609.8C586.055 611.75 588.98 614.75 590.93 618.8C593.03 622.85 594.08 628.25 594.08 635V680.45C594.08 687.05 593.48 692.525 592.28 696.875C591.08 701.075 589.205 704.525 586.655 707.225C584.105 709.775 580.655 711.575 576.305 712.625C572.105 713.675 566.93 714.2 560.78 714.2ZM561.455 703.85C566.105 703.85 569.48 702.95 571.58 701.15C573.83 699.35 575.255 696.95 575.855 693.95C576.605 690.95 576.98 687.65 576.98 684.05V636.8C576.98 633.35 576.68 630.2 576.08 627.35C575.48 624.5 574.055 622.25 571.805 620.6C569.705 618.95 566.33 618.125 561.68 618.125C557.78 618.125 554.705 618.65 552.455 619.7C550.355 620.75 548.78 622.175 547.73 623.975C546.83 625.625 546.23 627.35 545.93 629.15C545.78 630.95 545.705 632.75 545.705 634.55V684.05C545.705 687.65 546.005 690.95 546.605 693.95C547.355 696.95 548.855 699.35 551.105 701.15C553.355 702.95 556.805 703.85 561.455 703.85ZM611.458 712.625V601.25H628.558V647.375C632.758 638.675 637.708 631.025 643.408 624.425C649.108 617.825 655.033 612.725 661.183 609.125C667.483 605.525 673.258 603.8 678.508 603.95V615.65C674.608 616.55 671.083 618.125 667.933 620.375C664.783 622.625 661.933 625.175 659.383 628.025C657.583 629.975 655.858 632.075 654.208 634.325C652.708 636.425 651.283 638.675 649.933 641.075L677.833 712.625H658.258L635.308 659.75C633.958 661.85 632.608 664.175 631.258 666.725C630.058 669.275 629.158 671.15 628.558 672.35V712.625H611.458ZM715.466 714.2C711.866 714.2 708.341 713.675 704.891 712.625C701.441 711.725 698.516 709.55 696.116 706.1C693.716 702.65 692.516 697.25 692.516 689.9V677.975C692.516 670.625 694.691 664.7 699.041 660.2C703.541 655.7 709.916 651.65 718.166 648.05C723.116 645.8 727.166 643.775 730.316 641.975C733.466 640.025 735.791 637.925 737.291 635.675C738.791 633.275 739.541 630.125 739.541 626.225V621.05C739.541 617.75 738.866 615.275 737.516 613.625C736.316 611.825 734.591 610.55 732.341 609.8C730.241 609.05 727.916 608.675 725.366 608.675C719.366 608.675 715.391 610.4 713.441 613.85C711.641 617.15 710.741 622.25 710.741 629.15V638.6H695.216V627.575C695.216 622.025 695.966 617.15 697.466 612.95C698.966 608.6 701.891 605.225 706.241 602.825C710.591 600.275 716.966 599 725.366 599C734.216 599 740.891 599.975 745.391 601.925C749.891 603.725 752.891 606.425 754.391 610.025C756.041 613.625 756.866 618.125 756.866 623.525V712.625H739.766V699.125C738.116 704.075 734.966 707.825 730.316 710.375C725.816 712.925 720.866 714.2 715.466 714.2ZM722.216 702.725C728.366 702.725 732.716 700.625 735.266 696.425C737.966 692.075 739.316 686.225 739.316 678.875V645.125C737.966 647.375 735.716 649.4 732.566 651.2C729.566 652.85 726.491 654.575 723.341 656.375C718.841 659.075 715.316 661.85 712.766 664.7C710.366 667.55 709.166 671.525 709.166 676.625V686.3C709.166 691.1 709.841 694.7 711.191 697.1C712.541 699.5 714.191 701.075 716.141 701.825C718.241 702.425 720.266 702.725 722.216 702.725Z" fill="#262696"/>
<path d="M276.893 714.2C269.693 714.2 263.693 713.3 258.893 711.5C254.243 709.7 250.718 706.325 248.318 701.375C246.068 696.425 244.943 689.45 244.943 680.45V629.825C244.943 618.725 247.418 610.925 252.368 606.425C257.468 601.775 265.643 599.45 276.893 599.45C287.993 599.45 296.018 601.7 300.968 606.2C306.068 610.7 308.618 618.575 308.618 629.825V680.45C308.618 689.3 307.493 696.2 305.243 701.15C302.993 706.1 299.468 709.55 294.668 711.5C290.018 713.3 284.093 714.2 276.893 714.2ZM276.893 703.625C282.143 703.625 285.893 702.275 288.143 699.575C290.393 696.875 291.518 692 291.518 684.95V628.7C291.518 621.95 290.393 617.15 288.143 614.3C286.043 611.45 282.293 610.025 276.893 610.025C271.643 610.025 267.818 611.45 265.418 614.3C263.168 617 262.043 621.8 262.043 628.7V684.95C262.043 692 263.168 696.875 265.418 699.575C267.818 702.275 271.643 703.625 276.893 703.625ZM326.033 712.625V601.25H343.133V700.25H368.783V601.25H385.883V700.25H411.533V601.25H428.633V712.625H326.033ZM446.663 712.625V601.475H461.963V681.575L495.938 601.475H511.238V712.625H496.163V628.7C490.313 642.8 484.463 656.825 478.613 670.775C472.913 684.575 466.988 698.525 460.838 712.625H446.663ZM560.78 714.2C553.58 714.2 547.58 713.225 542.78 711.275C538.13 709.325 534.605 706.175 532.205 701.825C529.955 697.325 528.83 691.55 528.83 684.5V603.95C528.83 596.45 529.655 590.525 531.305 586.175C533.105 581.675 535.88 578.45 539.63 576.5C543.53 574.4 548.48 573.35 554.48 573.35C557.48 573.35 560.705 573.2 564.155 572.9C567.605 572.45 570.83 571.925 573.83 571.325C576.98 570.725 579.605 570.05 581.705 569.3C583.955 568.55 585.38 567.875 585.98 567.275V575.15C585.98 576.95 584.555 578.825 581.705 580.775C578.855 582.725 574.355 583.7 568.205 583.7H564.83C560.33 583.7 556.655 584.3 553.805 585.5C551.105 586.55 549.08 588.425 547.73 591.125C546.53 593.825 545.855 597.5 545.705 602.15V617.225C547.055 614.525 549.455 612.125 552.905 610.025C556.505 607.925 561.305 606.875 567.305 606.875C573.305 606.875 578.255 607.85 582.155 609.8C586.055 611.75 588.98 614.75 590.93 618.8C593.03 622.85 594.08 628.25 594.08 635V680.45C594.08 687.05 593.48 692.525 592.28 696.875C591.08 701.075 589.205 704.525 586.655 707.225C584.105 709.775 580.655 711.575 576.305 712.625C572.105 713.675 566.93 714.2 560.78 714.2ZM561.455 703.85C566.105 703.85 569.48 702.95 571.58 701.15C573.83 699.35 575.255 696.95 575.855 693.95C576.605 690.95 576.98 687.65 576.98 684.05V636.8C576.98 633.35 576.68 630.2 576.08 627.35C575.48 624.5 574.055 622.25 571.805 620.6C569.705 618.95 566.33 618.125 561.68 618.125C557.78 618.125 554.705 618.65 552.455 619.7C550.355 620.75 548.78 622.175 547.73 623.975C546.83 625.625 546.23 627.35 545.93 629.15C545.78 630.95 545.705 632.75 545.705 634.55V684.05C545.705 687.65 546.005 690.95 546.605 693.95C547.355 696.95 548.855 699.35 551.105 701.15C553.355 702.95 556.805 703.85 561.455 703.85ZM611.458 712.625V601.25H628.558V647.375C632.758 638.675 637.708 631.025 643.408 624.425C649.108 617.825 655.033 612.725 661.183 609.125C667.483 605.525 673.258 603.8 678.508 603.95V615.65C674.608 616.55 671.083 618.125 667.933 620.375C664.783 622.625 661.933 625.175 659.383 628.025C657.583 629.975 655.858 632.075 654.208 634.325C652.708 636.425 651.283 638.675 649.933 641.075L677.833 712.625H658.258L635.308 659.75C633.958 661.85 632.608 664.175 631.258 666.725C630.058 669.275 629.158 671.15 628.558 672.35V712.625H611.458ZM715.466 714.2C711.866 714.2 708.341 713.675 704.891 712.625C701.441 711.725 698.516 709.55 696.116 706.1C693.716 702.65 692.516 697.25 692.516 689.9V677.975C692.516 670.625 694.691 664.7 699.041 660.2C703.541 655.7 709.916 651.65 718.166 648.05C723.116 645.8 727.166 643.775 730.316 641.975C733.466 640.025 735.791 637.925 737.291 635.675C738.791 633.275 739.541 630.125 739.541 626.225V621.05C739.541 617.75 738.866 615.275 737.516 613.625C736.316 611.825 734.591 610.55 732.341 609.8C730.241 609.05 727.916 608.675 725.366 608.675C719.366 608.675 715.391 610.4 713.441 613.85C711.641 617.15 710.741 622.25 710.741 629.15V638.6H695.216V627.575C695.216 622.025 695.966 617.15 697.466 612.95C698.966 608.6 701.891 605.225 706.241 602.825C710.591 600.275 716.966 599 725.366 599C734.216 599 740.891 599.975 745.391 601.925C749.891 603.725 752.891 606.425 754.391 610.025C756.041 613.625 756.866 618.125 756.866 623.525V712.625H739.766V699.125C738.116 704.075 734.966 707.825 730.316 710.375C725.816 712.925 720.866 714.2 715.466 714.2ZM722.216 702.725C728.366 702.725 732.716 700.625 735.266 696.425C737.966 692.075 739.316 686.225 739.316 678.875V645.125C737.966 647.375 735.716 649.4 732.566 651.2C729.566 652.85 726.491 654.575 723.341 656.375C718.841 659.075 715.316 661.85 712.766 664.7C710.366 667.55 709.166 671.525 709.166 676.625V686.3C709.166 691.1 709.841 694.7 711.191 697.1C712.541 699.5 714.191 701.075 716.141 701.825C718.241 702.425 720.266 702.725 722.216 702.725Z" stroke="#262696" stroke-width="2.25" mask="url(#path-2-outside-1_50_594)"/>
</svg>
